<svg width="106" height="88" viewBox="0 0 106 88" fill="none" xmlns="http://www.w3.org/2000/svg">
<path d="M53.4576 79.248C49.3936 79.248 45.7456 78.304 42.5136 76.416C39.3136 74.528 36.7856 72 34.9296 68.832C33.0736 65.664 32.1456 62.144 32.1456 58.272H42.1296C42.1296 60.288 42.6096 62.128 43.5696 63.792C44.5296 65.456 45.8576 66.784 47.5536 67.776C49.2496 68.768 51.2176 69.264 53.4576 69.264C55.4736 69.264 57.3456 68.768 59.0736 67.776C60.8016 66.784 62.1936 65.456 63.2496 63.792C64.3056 62.128 64.8336 60.288 64.8336 58.272C64.8336 55.712 64.1616 53.568 62.8176 51.84C61.4736 50.112 59.6016 48.832 57.2016 48C54.8336 47.136 52.0976 46.704 48.9936 46.704V38.832C53.2176 38.832 56.5936 38 59.1216 36.336C61.6496 34.672 62.9136 32.192 62.9136 28.896C62.9136 27.168 62.4496 25.6 61.5216 24.192C60.6256 22.752 59.4256 21.616 57.9216 20.784C56.4496 19.92 54.8656 19.488 53.1696 19.488C51.4096 19.488 49.7136 19.92 48.0816 20.784C46.4816 21.616 45.1696 22.752 44.1456 24.192C43.1216 25.6 42.6096 27.168 42.6096 28.896H32.6256C32.6256 26.24 33.1696 23.744 34.2576 21.408C35.3776 19.04 36.8816 16.976 38.7696 15.216C40.6896 13.424 42.8656 12.032 45.2976 11.04C47.7616 10.016 50.3376 9.504 53.0256 9.504C56.5456 9.504 59.8096 10.384 62.8176 12.144C65.8576 13.872 68.2896 16.208 70.1136 19.152C71.9696 22.064 72.8976 25.312 72.8976 28.896C72.8976 31.744 72.1936 34.448 70.7856 37.008C69.4096 39.536 67.4896 41.328 65.0256 42.384C67.1696 43.152 68.9616 44.368 70.4016 46.032C71.8736 47.664 72.9776 49.552 73.7136 51.696C74.4496 53.808 74.8176 56 74.8176 58.272C74.8176 62.112 73.8416 65.632 71.8896 68.832C69.9376 72 67.3296 74.528 64.0656 76.416C60.8336 78.304 57.2976 79.248 53.4576 79.248Z" fill="black"/>
</svg>
