<svg width="106" height="88" viewBox="0 0 106 88" fill="none" xmlns="http://www.w3.org/2000/svg">
<path d="M52.3296 79.248C48.0736 79.248 44.2176 78.224 40.7616 76.176C37.3376 74.096 34.6176 71.344 32.6016 67.92C30.6176 64.464 29.6256 60.688 29.6256 56.592H39.6096C39.6096 58.928 40.1856 61.056 41.3376 62.976C42.4896 64.896 44.0256 66.432 45.9456 67.584C47.8656 68.704 49.9936 69.264 52.3296 69.264C54.6336 69.264 56.7456 68.704 58.6656 67.584C60.5856 66.432 62.1216 64.896 63.2736 62.976C64.4256 61.056 65.0016 58.928 65.0016 56.592C65.0016 54.256 64.4736 52.128 63.4176 50.208C62.3616 48.256 60.7776 46.704 58.6656 45.552C56.5536 44.368 53.8656 43.776 50.6016 43.776H33.6576L40.4736 10.8H72.9696V20.784H48.5856L45.9456 33.792L51.7536 33.888C56.3296 33.984 60.3456 35.04 63.8016 37.056C67.2896 39.04 70.0256 41.728 72.0096 45.12C73.9936 48.48 74.9856 52.304 74.9856 56.592C74.9856 59.696 74.3936 62.624 73.2096 65.376C72.0256 68.096 70.3936 70.496 68.3136 72.576C66.2656 74.656 63.8656 76.288 61.1136 77.472C58.3936 78.656 55.4656 79.248 52.3296 79.248Z" fill="black"/>
</svg>
