<svg width="106" height="88" viewBox="0 0 106 88" fill="none" xmlns="http://www.w3.org/2000/svg">
<path d="M52.9959 79.248C48.9319 79.248 45.2359 78.32 41.9079 76.464C38.5799 74.608 35.9239 72.128 33.9399 69.024C31.9879 65.888 31.0119 62.4 31.0119 58.56C31.0119 55.328 31.8119 52.32 33.4119 49.536C35.0119 46.752 37.1399 44.448 39.7959 42.624C37.6519 41.024 35.9079 39.008 34.5639 36.576C33.2199 34.144 32.5479 31.52 32.5479 28.704C32.5479 25.184 33.4599 21.984 35.2839 19.104C37.1399 16.192 39.6199 13.872 42.7239 12.144C45.8279 10.416 49.2519 9.55199 52.9959 9.55199C56.7399 9.55199 60.1639 10.416 63.2679 12.144C66.3719 13.872 68.8359 16.192 70.6599 19.104C72.5159 21.984 73.4439 25.184 73.4439 28.704C73.4439 31.52 72.7719 34.144 71.4279 36.576C70.1159 39.008 68.3719 41.024 66.1959 42.624C68.9159 44.448 71.0599 46.752 72.6279 49.536C74.2279 52.32 75.0279 55.328 75.0279 58.56C75.0279 62.368 74.0359 65.84 72.0519 68.976C70.0679 72.112 67.4119 74.608 64.0839 76.464C60.7559 78.32 57.0599 79.248 52.9959 79.248ZM52.9959 69.264C55.1079 69.264 57.0279 68.784 58.7559 67.824C60.4839 66.864 61.8599 65.584 62.8839 63.984C63.9399 62.352 64.4679 60.544 64.4679 58.56C64.4679 56.608 63.9399 54.832 62.8839 53.232C61.8599 51.6 60.4839 50.304 58.7559 49.344C57.0279 48.384 55.1079 47.904 52.9959 47.904C50.9159 47.904 48.9959 48.384 47.2359 49.344C45.5079 50.304 44.1159 51.6 43.0599 53.232C42.0359 54.832 41.5239 56.608 41.5239 58.56C41.5239 60.544 42.0359 62.352 43.0599 63.984C44.1159 65.584 45.5079 66.864 47.2359 67.824C48.9959 68.784 50.9159 69.264 52.9959 69.264ZM52.9959 37.92C54.8199 37.92 56.4679 37.504 57.9399 36.672C59.4439 35.84 60.6439 34.736 61.5399 33.36C62.4359 31.952 62.8839 30.4 62.8839 28.704C62.8839 27.008 62.4359 25.472 61.5399 24.096C60.6439 22.72 59.4439 21.616 57.9399 20.784C56.4679 19.952 54.8199 19.536 52.9959 19.536C51.1719 19.536 49.5079 19.952 48.0039 20.784C46.5319 21.616 45.3479 22.72 44.4519 24.096C43.5559 25.472 43.1079 27.008 43.1079 28.704C43.1079 30.4 43.5559 31.952 44.4519 33.36C45.3479 34.736 46.5319 35.84 48.0039 36.672C49.5079 37.504 51.1719 37.92 52.9959 37.92Z" fill="black"/>
</svg>
