<svg width="106" height="88" viewBox="0 0 106 88" fill="none" xmlns="http://www.w3.org/2000/svg">
<path d="M42.0061 78L55.5901 54.48C52.3581 55.088 49.2061 54.96 46.1341 54.096C43.0941 53.2 40.3581 51.744 37.9261 49.728C35.4941 47.68 33.5581 45.2 32.1181 42.288C30.6781 39.376 29.9581 36.176 29.9581 32.688C29.9581 29.52 30.5501 26.544 31.7341 23.76C32.9501 20.944 34.6141 18.48 36.7261 16.368C38.8381 14.224 41.2861 12.56 44.0701 11.376C46.8861 10.16 49.8941 9.55199 53.0941 9.55199C57.2861 9.55199 61.1261 10.592 64.6141 12.672C68.1021 14.752 70.8861 17.552 72.9661 21.072C75.0461 24.56 76.0861 28.432 76.0861 32.688C76.0861 34.896 75.8141 36.912 75.2701 38.736C74.7581 40.56 73.9421 42.48 72.8221 44.496L53.5741 78H42.0061ZM52.9981 45.792C55.5581 45.792 57.8301 45.184 59.8141 43.968C61.7981 42.72 63.3501 41.104 64.4701 39.12C65.6221 37.104 66.1981 34.944 66.1981 32.64C66.1981 30.144 65.5901 27.904 64.3741 25.92C63.1581 23.936 61.5421 22.368 59.5261 21.216C57.5421 20.064 55.3981 19.488 53.0941 19.488C50.5341 19.488 48.2621 20.112 46.2781 21.36C44.2941 22.608 42.7261 24.24 41.5741 26.256C40.4221 28.24 39.8461 30.368 39.8461 32.64C39.8461 35.04 40.4221 37.248 41.5741 39.264C42.7581 41.248 44.3421 42.832 46.3261 44.016C48.3101 45.2 50.5341 45.792 52.9981 45.792Z" fill="black"/>
</svg>
