<svg width="106" height="88" viewBox="0 0 106 88" fill="none" xmlns="http://www.w3.org/2000/svg">
<path d="M53.1689 79.248C48.8809 79.248 44.9609 78.192 41.4089 76.08C37.8569 73.936 35.0089 71.088 32.8649 67.536C30.7529 63.952 29.6969 60 29.6969 55.68C29.6969 53.376 29.9689 51.296 30.5129 49.44C31.0569 47.584 31.8889 45.632 33.0089 43.584L51.9209 10.8H63.5369L50.4329 33.456C53.0889 32.944 55.6809 32.928 58.2089 33.408C60.7689 33.856 63.1689 34.736 65.4089 36.048C67.6489 37.328 69.6169 38.96 71.3129 40.944C73.0409 42.896 74.3849 45.12 75.3449 47.616C76.3049 50.112 76.7849 52.8 76.7849 55.68C76.7849 58.912 76.1609 61.952 74.9129 64.8C73.6969 67.648 72.0009 70.16 69.8249 72.336C67.6809 74.48 65.1689 76.176 62.2889 77.424C59.4409 78.64 56.4009 79.248 53.1689 79.248ZM53.1689 69.264C55.7929 69.264 58.1289 68.624 60.1769 67.344C62.2249 66.064 63.8409 64.384 65.0249 62.304C66.2089 60.224 66.8009 58.016 66.8009 55.68C66.8009 53.216 66.1929 50.96 64.9769 48.912C63.7929 46.864 62.1769 45.232 60.1289 44.016C58.0809 42.768 55.7929 42.144 53.2649 42.144C50.6409 42.144 48.3049 42.784 46.2569 44.064C44.2089 45.344 42.5929 47.008 41.4089 49.056C40.2569 51.104 39.6809 53.312 39.6809 55.68C39.6809 58.272 40.3049 60.592 41.5529 62.64C42.8329 64.688 44.4969 66.304 46.5449 67.488C48.5929 68.672 50.8009 69.264 53.1689 69.264Z" fill="black"/>
</svg>
