<svg width="106" height="88" viewBox="0 0 106 88" fill="none" xmlns="http://www.w3.org/2000/svg">
<path d="M22.856 78V20.784H14.84L17.576 10.8H32.84V78H22.856ZM66.5953 79.248C62.3393 79.248 58.4833 78.224 55.0273 76.176C51.6033 74.096 48.8833 71.344 46.8672 67.92C44.8832 64.464 43.8913 60.688 43.8913 56.592H53.8753C53.8753 58.928 54.4513 61.056 55.6033 62.976C56.7553 64.896 58.2913 66.432 60.2113 67.584C62.1313 68.704 64.2593 69.264 66.5953 69.264C68.8993 69.264 71.0113 68.704 72.9313 67.584C74.8513 66.432 76.3873 64.896 77.5393 62.976C78.6913 61.056 79.2673 58.928 79.2673 56.592C79.2673 54.256 78.7393 52.128 77.6833 50.208C76.6273 48.256 75.0433 46.704 72.9313 45.552C70.8193 44.368 68.1313 43.776 64.8673 43.776H47.9233L54.7393 10.8H87.2353V20.784H62.8513L60.2113 33.792L66.0193 33.888C70.5953 33.984 74.6113 35.04 78.0673 37.056C81.5553 39.04 84.2913 41.728 86.2753 45.12C88.2593 48.48 89.2513 52.304 89.2513 56.592C89.2513 59.696 88.6593 62.624 87.4753 65.376C86.2913 68.096 84.6593 70.496 82.5793 72.576C80.5313 74.656 78.1313 76.288 75.3793 77.472C72.6593 78.656 69.7313 79.248 66.5953 79.248Z" fill="black"/>
</svg>
