<svg width="106" height="88" viewBox="0 0 106 88" fill="none" xmlns="http://www.w3.org/2000/svg">
<path d="M24.2623 78V20.784H16.2463L18.9823 10.8H34.2463V78H24.2623ZM67.7615 79.248C63.6975 79.248 60.0015 78.32 56.6735 76.464C53.3455 74.608 50.6895 72.128 48.7055 69.024C46.7535 65.888 45.7775 62.4 45.7775 58.56C45.7775 55.328 46.5775 52.32 48.1775 49.536C49.7775 46.752 51.9055 44.448 54.5615 42.624C52.4175 41.024 50.6735 39.008 49.3295 36.576C47.9855 34.144 47.3135 31.52 47.3135 28.704C47.3135 25.184 48.2255 21.984 50.0495 19.104C51.9055 16.192 54.3855 13.872 57.4895 12.144C60.5935 10.416 64.0175 9.55199 67.7615 9.55199C71.5055 9.55199 74.9295 10.416 78.0335 12.144C81.1375 13.872 83.6015 16.192 85.4255 19.104C87.2815 21.984 88.2095 25.184 88.2095 28.704C88.2095 31.52 87.5375 34.144 86.1935 36.576C84.8815 39.008 83.1375 41.024 80.9615 42.624C83.6815 44.448 85.8255 46.752 87.3935 49.536C88.9935 52.32 89.7935 55.328 89.7935 58.56C89.7935 62.368 88.8015 65.84 86.8175 68.976C84.8335 72.112 82.1775 74.608 78.8495 76.464C75.5215 78.32 71.8255 79.248 67.7615 79.248ZM67.7615 69.264C69.8735 69.264 71.7935 68.784 73.5215 67.824C75.2495 66.864 76.6255 65.584 77.6495 63.984C78.7055 62.352 79.2335 60.544 79.2335 58.56C79.2335 56.608 78.7055 54.832 77.6495 53.232C76.6255 51.6 75.2495 50.304 73.5215 49.344C71.7935 48.384 69.8735 47.904 67.7615 47.904C65.6815 47.904 63.7615 48.384 62.0015 49.344C60.2735 50.304 58.8815 51.6 57.8255 53.232C56.8015 54.832 56.2895 56.608 56.2895 58.56C56.2895 60.544 56.8015 62.352 57.8255 63.984C58.8815 65.584 60.2735 66.864 62.0015 67.824C63.7615 68.784 65.6815 69.264 67.7615 69.264ZM67.7615 37.92C69.5855 37.92 71.2335 37.504 72.7055 36.672C74.2095 35.84 75.4095 34.736 76.3055 33.36C77.2015 31.952 77.6495 30.4 77.6495 28.704C77.6495 27.008 77.2015 25.472 76.3055 24.096C75.4095 22.72 74.2095 21.616 72.7055 20.784C71.2335 19.952 69.5855 19.536 67.7615 19.536C65.9375 19.536 64.2735 19.952 62.7695 20.784C61.2975 21.616 60.1135 22.72 59.2175 24.096C58.3215 25.472 57.8735 27.008 57.8735 28.704C57.8735 30.4 58.3215 31.952 59.2175 33.36C60.1135 34.736 61.2975 35.84 62.7695 36.672C64.2735 37.504 65.9375 37.92 67.7615 37.92Z" fill="black"/>
</svg>
