<svg width="106" height="88" viewBox="0 0 106 88" fill="none" xmlns="http://www.w3.org/2000/svg">
<path d="M21.2623 78V20.784H13.2463L15.9823 10.8H31.2463V78H21.2623ZM67.8815 79.248C63.9135 79.248 60.3295 78.352 57.1295 76.56C53.9615 74.736 51.2255 72.224 48.9215 69.024C46.6175 65.824 44.8575 62.128 43.6415 57.936C42.4255 53.712 41.8175 49.2 41.8175 44.4C41.8175 39.6 42.4255 35.088 43.6415 30.864C44.8575 26.64 46.6175 22.944 48.9215 19.776C51.2255 16.576 53.9615 14.08 57.1295 12.288C60.3295 10.464 63.9135 9.55199 67.8815 9.55199C71.7855 9.55199 75.3375 10.464 78.5375 12.288C81.7375 14.08 84.4575 16.576 86.6975 19.776C88.9695 22.944 90.7135 26.64 91.9295 30.864C93.1455 35.088 93.7535 39.6 93.7535 44.4C93.7535 49.2 93.1455 53.712 91.9295 57.936C90.7135 62.128 88.9695 65.824 86.6975 69.024C84.4575 72.224 81.7375 74.736 78.5375 76.56C75.3375 78.352 71.7855 79.248 67.8815 79.248ZM67.8815 69.264C71.5615 69.264 74.6175 68.112 77.0495 65.808C79.5135 63.472 81.3535 60.416 82.5695 56.64C83.7855 52.864 84.3935 48.784 84.3935 44.4C84.3935 39.792 83.7535 35.616 82.4735 31.872C81.2255 28.096 79.3695 25.104 76.9055 22.896C74.4735 20.656 71.4655 19.536 67.8815 19.536C65.0335 19.536 62.5535 20.208 60.4415 21.552C58.3615 22.896 56.6335 24.736 55.2575 27.072C53.9135 29.408 52.8895 32.064 52.1855 35.04C51.5135 38.016 51.1775 41.136 51.1775 44.4C51.1775 48.784 51.8015 52.864 53.0495 56.64C54.2975 60.416 56.1535 63.472 58.6175 65.808C61.1135 68.112 64.2015 69.264 67.8815 69.264Z" fill="black"/>
</svg>
