<svg width="106" height="88" viewBox="0 0 106 88" fill="none" xmlns="http://www.w3.org/2000/svg">
<g clip-path="url(#clip0_435_392)">
<path d="M2.93375 78V69.12C5.20575 67.232 7.81375 65.04 10.7578 62.544C13.7018 60.016 16.6938 57.344 19.7338 54.528C22.7738 51.68 25.5738 48.848 28.1338 46.032C30.6938 43.184 32.7578 40.496 34.3258 37.968C35.9258 35.408 36.7258 33.184 36.7258 31.296C36.7258 29.152 36.1978 27.2 35.1418 25.44C34.1178 23.648 32.7258 22.224 30.9658 21.168C29.2058 20.08 27.2538 19.536 25.1098 19.536C22.9658 19.536 20.9978 20.08 19.2058 21.168C17.4458 22.224 16.0218 23.648 14.9338 25.44C13.8778 27.2 13.3498 29.152 13.3498 31.296H3.36575C3.36575 27.232 4.35775 23.568 6.34175 20.304C8.35775 17.008 10.9978 14.4 14.2618 12.48C17.5578 10.528 21.1738 9.55199 25.1098 9.55199C29.0778 9.55199 32.6938 10.528 35.9578 12.48C39.2218 14.432 41.8298 17.056 43.7818 20.352C45.7338 23.616 46.7098 27.264 46.7098 31.296C46.7098 33.536 46.2458 35.84 45.3178 38.208C44.3898 40.576 43.0938 42.992 41.4298 45.456C39.7978 47.92 37.8938 50.416 35.7178 52.944C33.5418 55.472 31.2058 58 28.7098 60.528C26.2138 63.056 23.6698 65.552 21.0778 68.016H47.2858V78H2.93375ZM56.84 78V69.12C59.112 67.232 61.72 65.04 64.664 62.544C67.608 60.016 70.6 57.344 73.64 54.528C76.68 51.68 79.48 48.848 82.04 46.032C84.6 43.184 86.664 40.496 88.232 37.968C89.832 35.408 90.632 33.184 90.632 31.296C90.632 29.152 90.104 27.2 89.048 25.44C88.024 23.648 86.632 22.224 84.872 21.168C83.112 20.08 81.16 19.536 79.016 19.536C76.872 19.536 74.904 20.08 73.112 21.168C71.352 22.224 69.928 23.648 68.84 25.44C67.784 27.2 67.256 29.152 67.256 31.296H57.272C57.272 27.232 58.264 23.568 60.248 20.304C62.264 17.008 64.904 14.4 68.168 12.48C71.464 10.528 75.08 9.55199 79.016 9.55199C82.984 9.55199 86.6 10.528 89.864 12.48C93.128 14.432 95.736 17.056 97.688 20.352C99.64 23.616 100.616 27.264 100.616 31.296C100.616 33.536 100.152 35.84 99.224 38.208C98.296 40.576 97 42.992 95.336 45.456C93.704 47.92 91.8 50.416 89.624 52.944C87.448 55.472 85.112 58 82.616 60.528C80.12 63.056 77.576 65.552 74.984 68.016H101.192V78H56.84Z" fill="black"/>
</g>
<defs>
<clipPath id="clip0_435_392">
<rect width="106" height="88" fill="white"/>
</clipPath>
</defs>
</svg>
