<svg width="106" height="88" viewBox="0 0 106 88" fill="none" xmlns="http://www.w3.org/2000/svg">
<g clip-path="url(#clip0_435_392)">
<path d="M2.2775 78V69.12C4.5495 67.232 7.1575 65.04 10.1015 62.544C13.0455 60.016 16.0375 57.344 19.0775 54.528C22.1175 51.68 24.9175 48.848 27.4775 46.032C30.0375 43.184 32.1015 40.496 33.6695 37.968C35.2695 35.408 36.0695 33.184 36.0695 31.296C36.0695 29.152 35.5415 27.2 34.4855 25.44C33.4615 23.648 32.0695 22.224 30.3095 21.168C28.5495 20.08 26.5975 19.536 24.4535 19.536C22.3095 19.536 20.3415 20.08 18.5495 21.168C16.7895 22.224 15.3655 23.648 14.2775 25.44C13.2215 27.2 12.6935 29.152 12.6935 31.296H2.7095C2.7095 27.232 3.7015 23.568 5.6855 20.304C7.7015 17.008 10.3415 14.4 13.6055 12.48C16.9015 10.528 20.5175 9.55199 24.4535 9.55199C28.4215 9.55199 32.0375 10.528 35.3015 12.48C38.5655 14.432 41.1735 17.056 43.1255 20.352C45.0775 23.616 46.0535 27.264 46.0535 31.296C46.0535 33.536 45.5895 35.84 44.6615 38.208C43.7335 40.576 42.4375 42.992 40.7735 45.456C39.1415 47.92 37.2375 50.416 35.0615 52.944C32.8855 55.472 30.5495 58 28.0535 60.528C25.5575 63.056 23.0135 65.552 20.4215 68.016H46.6295V78H2.2775ZM78.8503 79.248C74.8823 79.248 71.2983 78.352 68.0983 76.56C64.9303 74.736 62.1943 72.224 59.8903 69.024C57.5863 65.824 55.8263 62.128 54.6103 57.936C53.3943 53.712 52.7863 49.2 52.7863 44.4C52.7863 39.6 53.3943 35.088 54.6103 30.864C55.8263 26.64 57.5863 22.944 59.8903 19.776C62.1943 16.576 64.9303 14.08 68.0983 12.288C71.2983 10.464 74.8823 9.55199 78.8503 9.55199C82.7543 9.55199 86.3063 10.464 89.5063 12.288C92.7063 14.08 95.4263 16.576 97.6663 19.776C99.9383 22.944 101.682 26.64 102.898 30.864C104.114 35.088 104.722 39.6 104.722 44.4C104.722 49.2 104.114 53.712 102.898 57.936C101.682 62.128 99.9383 65.824 97.6663 69.024C95.4263 72.224 92.7063 74.736 89.5063 76.56C86.3063 78.352 82.7543 79.248 78.8503 79.248ZM78.8503 69.264C82.5303 69.264 85.5863 68.112 88.0183 65.808C90.4823 63.472 92.3223 60.416 93.5383 56.64C94.7543 52.864 95.3623 48.784 95.3623 44.4C95.3623 39.792 94.7223 35.616 93.4423 31.872C92.1943 28.096 90.3383 25.104 87.8743 22.896C85.4423 20.656 82.4343 19.536 78.8503 19.536C76.0023 19.536 73.5223 20.208 71.4103 21.552C69.3303 22.896 67.6023 24.736 66.2263 27.072C64.8823 29.408 63.8583 32.064 63.1543 35.04C62.4823 38.016 62.1463 41.136 62.1463 44.4C62.1463 48.784 62.7703 52.864 64.0182 56.64C65.2663 60.416 67.1223 63.472 69.5863 65.808C72.0823 68.112 75.1703 69.264 78.8503 69.264Z" fill="black"/>
</g>
<defs>
<clipPath id="clip0_435_392">
<rect width="106" height="88" fill="white"/>
</clipPath>
</defs>
</svg>
