<svg width="106" height="88" viewBox="0 0 106 88" fill="none" xmlns="http://www.w3.org/2000/svg">
<g clip-path="url(#clip0_435_392)">
<path d="M4.10563 78V69.12C6.37763 67.232 8.98563 65.04 11.9296 62.544C14.8736 60.016 17.8656 57.344 20.9056 54.528C23.9456 51.68 26.7456 48.848 29.3056 46.032C31.8656 43.184 33.9296 40.496 35.4976 37.968C37.0976 35.408 37.8976 33.184 37.8976 31.296C37.8976 29.152 37.3696 27.2 36.3136 25.44C35.2896 23.648 33.8976 22.224 32.1376 21.168C30.3776 20.08 28.4256 19.536 26.2816 19.536C24.1376 19.536 22.1696 20.08 20.3776 21.168C18.6176 22.224 17.1936 23.648 16.1056 25.44C15.0496 27.2 14.5216 29.152 14.5216 31.296H4.53763C4.53763 27.232 5.52963 23.568 7.51363 20.304C9.52963 17.008 12.1696 14.4 15.4336 12.48C18.7296 10.528 22.3456 9.55199 26.2816 9.55199C30.2496 9.55199 33.8656 10.528 37.1296 12.48C40.3936 14.432 43.0016 17.056 44.9536 20.352C46.9056 23.616 47.8816 27.264 47.8816 31.296C47.8816 33.536 47.4176 35.84 46.4896 38.208C45.5616 40.576 44.2656 42.992 42.6016 45.456C40.9696 47.92 39.0656 50.416 36.8896 52.944C34.7136 55.472 32.3776 58 29.8816 60.528C27.3856 63.056 24.8416 65.552 22.2496 68.016H48.4576V78H4.10563ZM83.8576 78V60.816H55.1056V50.784L81.4576 10.8H93.8416V50.832H99.9856V60.816H93.8416V78H83.8576ZM66.7216 50.784L83.8576 50.832L83.7616 24.576L66.7216 50.784Z" fill="black"/>
</g>
<defs>
<clipPath id="clip0_435_392">
<rect width="106" height="88" fill="white"/>
</clipPath>
</defs>
</svg>
