<svg width="106" height="88" viewBox="0 0 106 88" fill="none" xmlns="http://www.w3.org/2000/svg">
<g clip-path="url(#clip0_435_392)">
<path d="M4.23063 78V69.12C6.50263 67.232 9.11063 65.04 12.0546 62.544C14.9986 60.016 17.9906 57.344 21.0306 54.528C24.0706 51.68 26.8706 48.848 29.4306 46.032C31.9906 43.184 34.0546 40.496 35.6226 37.968C37.2226 35.408 38.0226 33.184 38.0226 31.296C38.0226 29.152 37.4946 27.2 36.4386 25.44C35.4146 23.648 34.0226 22.224 32.2626 21.168C30.5026 20.08 28.5506 19.536 26.4066 19.536C24.2626 19.536 22.2946 20.08 20.5026 21.168C18.7426 22.224 17.3186 23.648 16.2306 25.44C15.1746 27.2 14.6466 29.152 14.6466 31.296H4.66263C4.66263 27.232 5.65463 23.568 7.63863 20.304C9.65463 17.008 12.2946 14.4 15.5586 12.48C18.8546 10.528 22.4706 9.55199 26.4066 9.55199C30.3746 9.55199 33.9906 10.528 37.2546 12.48C40.5186 14.432 43.1266 17.056 45.0786 20.352C47.0306 23.616 48.0066 27.264 48.0066 31.296C48.0066 33.536 47.5426 35.84 46.6146 38.208C45.6866 40.576 44.3906 42.992 42.7266 45.456C41.0946 47.92 39.1906 50.416 37.0146 52.944C34.8386 55.472 32.5026 58 30.0066 60.528C27.5106 63.056 24.9666 65.552 22.3746 68.016H48.5826V78H4.23063ZM60.1049 78L93.0809 20.784H56.2169V10.8H104.649V20.784L71.5769 78H60.1049Z" fill="black"/>
</g>
<defs>
<clipPath id="clip0_435_392">
<rect width="106" height="88" fill="white"/>
</clipPath>
</defs>
</svg>
