<svg width="106" height="88" viewBox="0 0 106 88" fill="none" xmlns="http://www.w3.org/2000/svg">
<path d="M38.192 79.248C34.128 79.248 30.48 78.304 27.248 76.416C24.048 74.528 21.52 72 19.664 68.832C17.808 65.664 16.88 62.144 16.88 58.272H26.864C26.864 60.288 27.344 62.128 28.304 63.792C29.264 65.456 30.592 66.784 32.288 67.776C33.984 68.768 35.952 69.264 38.192 69.264C40.208 69.264 42.08 68.768 43.808 67.776C45.536 66.784 46.928 65.456 47.984 63.792C49.04 62.128 49.568 60.288 49.568 58.272C49.568 55.712 48.896 53.568 47.552 51.84C46.208 50.112 44.336 48.832 41.936 48C39.568 47.136 36.832 46.704 33.728 46.704V38.832C37.952 38.832 41.328 38 43.856 36.336C46.384 34.672 47.648 32.192 47.648 28.896C47.648 27.168 47.184 25.6 46.256 24.192C45.36 22.752 44.16 21.616 42.656 20.784C41.184 19.92 39.6 19.488 37.904 19.488C36.144 19.488 34.448 19.92 32.816 20.784C31.216 21.616 29.904 22.752 28.88 24.192C27.856 25.6 27.344 27.168 27.344 28.896H17.36C17.36 26.24 17.904 23.744 18.992 21.408C20.112 19.04 21.616 16.976 23.504 15.216C25.424 13.424 27.6 12.032 30.032 11.04C32.496 10.016 35.072 9.504 37.76 9.504C41.28 9.504 44.544 10.384 47.552 12.144C50.592 13.872 53.024 16.208 54.848 19.152C56.704 22.064 57.632 25.312 57.632 28.896C57.632 31.744 56.928 34.448 55.52 37.008C54.144 39.536 52.224 41.328 49.76 42.384C51.904 43.152 53.696 44.368 55.136 46.032C56.608 47.664 57.712 49.552 58.448 51.696C59.184 53.808 59.552 56 59.552 58.272C59.552 62.112 58.576 65.632 56.624 68.832C54.672 72 52.064 74.528 48.8 76.416C45.568 78.304 42.032 79.248 38.192 79.248ZM74.3248 78V20.784H66.3088L69.0448 10.8H84.3088V78H74.3248Z" fill="black"/>
</svg>
