<svg width="106" height="88" viewBox="0 0 106 88" fill="none" xmlns="http://www.w3.org/2000/svg">
<path d="M26.2233 79.248C22.1593 79.248 18.5113 78.304 15.2793 76.416C12.0793 74.528 9.55125 72 7.69525 68.832C5.83925 65.664 4.91125 62.144 4.91125 58.272H14.8953C14.8953 60.288 15.3753 62.128 16.3353 63.792C17.2953 65.456 18.6233 66.784 20.3193 67.776C22.0153 68.768 23.9833 69.264 26.2233 69.264C28.2393 69.264 30.1113 68.768 31.8393 67.776C33.5673 66.784 34.9593 65.456 36.0153 63.792C37.0713 62.128 37.5993 60.288 37.5993 58.272C37.5993 55.712 36.9273 53.568 35.5833 51.84C34.2393 50.112 32.3673 48.832 29.9673 48C27.5993 47.136 24.8633 46.704 21.7593 46.704V38.832C25.9833 38.832 29.3593 38 31.8873 36.336C34.4153 34.672 35.6793 32.192 35.6793 28.896C35.6793 27.168 35.2153 25.6 34.2873 24.192C33.3913 22.752 32.1913 21.616 30.6873 20.784C29.2153 19.92 27.6313 19.488 25.9353 19.488C24.1753 19.488 22.4793 19.92 20.8473 20.784C19.2473 21.616 17.9353 22.752 16.9113 24.192C15.8873 25.6 15.3753 27.168 15.3753 28.896H5.39125C5.39125 26.24 5.93525 23.744 7.02325 21.408C8.14325 19.04 9.64725 16.976 11.5353 15.216C13.4553 13.424 15.6313 12.032 18.0633 11.04C20.5273 10.016 23.1033 9.504 25.7913 9.504C29.3113 9.504 32.5753 10.384 35.5833 12.144C38.6233 13.872 41.0553 16.208 42.8793 19.152C44.7353 22.064 45.6633 25.312 45.6633 28.896C45.6633 31.744 44.9593 34.448 43.5513 37.008C42.1753 39.536 40.2553 41.328 37.7913 42.384C39.9353 43.152 41.7273 44.368 43.1673 46.032C44.6393 47.664 45.7433 49.552 46.4793 51.696C47.2153 53.808 47.5833 56 47.5833 58.272C47.5833 62.112 46.6073 65.632 44.6553 68.832C42.7033 72 40.0953 74.528 36.8313 76.416C33.5993 78.304 30.0633 79.248 26.2233 79.248ZM76.564 79.248C72.308 79.248 68.452 78.224 64.996 76.176C61.572 74.096 58.852 71.344 56.836 67.92C54.852 64.464 53.86 60.688 53.86 56.592H63.844C63.844 58.928 64.42 61.056 65.572 62.976C66.724 64.896 68.26 66.432 70.18 67.584C72.1 68.704 74.228 69.264 76.564 69.264C78.868 69.264 80.98 68.704 82.9 67.584C84.82 66.432 86.356 64.896 87.508 62.976C88.66 61.056 89.236 58.928 89.236 56.592C89.236 54.256 88.708 52.128 87.652 50.208C86.596 48.256 85.012 46.704 82.9 45.552C80.788 44.368 78.1 43.776 74.836 43.776H57.892L64.708 10.8H97.204V20.784H72.82L70.18 33.792L75.988 33.888C80.564 33.984 84.58 35.04 88.036 37.056C91.524 39.04 94.26 41.728 96.244 45.12C98.228 48.48 99.22 52.304 99.22 56.592C99.22 59.696 98.628 62.624 97.444 65.376C96.26 68.096 94.628 70.496 92.548 72.576C90.5 74.656 88.1 76.288 85.348 77.472C82.628 78.656 79.7 79.248 76.564 79.248Z" fill="black"/>
</svg>
