<svg width="106" height="88" viewBox="0 0 106 88" fill="none" xmlns="http://www.w3.org/2000/svg">
<g clip-path="url(#clip0_435_392)">
<path d="M26.5015 79.248C22.2455 79.248 18.3895 78.224 14.9335 76.176C11.5095 74.096 8.7895 71.344 6.7735 67.92C4.7895 64.464 3.7975 60.688 3.7975 56.592H13.7815C13.7815 58.928 14.3575 61.056 15.5095 62.976C16.6615 64.896 18.1975 66.432 20.1175 67.584C22.0375 68.704 24.1655 69.264 26.5015 69.264C28.8055 69.264 30.9175 68.704 32.8375 67.584C34.7575 66.432 36.2935 64.896 37.4455 62.976C38.5975 61.056 39.1735 58.928 39.1735 56.592C39.1735 54.256 38.6455 52.128 37.5895 50.208C36.5335 48.256 34.9495 46.704 32.8375 45.552C30.7255 44.368 28.0375 43.776 24.7735 43.776H7.8295L14.6455 10.8H47.1415V20.784H22.7575L20.1175 33.792L25.9255 33.888C30.5015 33.984 34.5175 35.04 37.9735 37.056C41.4615 39.04 44.1975 41.728 46.1815 45.12C48.1655 48.48 49.1575 52.304 49.1575 56.592C49.1575 59.696 48.5655 62.624 47.3815 65.376C46.1975 68.096 44.5655 70.496 42.4855 72.576C40.4375 74.656 38.0375 76.288 35.2855 77.472C32.5655 78.656 29.6375 79.248 26.5015 79.248ZM80.7303 79.248C76.6663 79.248 72.9703 78.32 69.6423 76.464C66.3143 74.608 63.6583 72.128 61.6743 69.024C59.7223 65.888 58.7463 62.4 58.7463 58.56C58.7463 55.328 59.5463 52.32 61.1463 49.536C62.7463 46.752 64.8743 44.448 67.5303 42.624C65.3863 41.024 63.6423 39.008 62.2983 36.576C60.9543 34.144 60.2823 31.52 60.2823 28.704C60.2823 25.184 61.1943 21.984 63.0183 19.104C64.8743 16.192 67.3543 13.872 70.4583 12.144C73.5623 10.416 76.9863 9.55199 80.7303 9.55199C84.4743 9.55199 87.8983 10.416 91.0023 12.144C94.1063 13.872 96.5703 16.192 98.3943 19.104C100.25 21.984 101.178 25.184 101.178 28.704C101.178 31.52 100.506 34.144 99.1623 36.576C97.8503 39.008 96.1063 41.024 93.9303 42.624C96.6503 44.448 98.7943 46.752 100.362 49.536C101.962 52.32 102.762 55.328 102.762 58.56C102.762 62.368 101.77 65.84 99.7863 68.976C97.8023 72.112 95.1463 74.608 91.8183 76.464C88.4903 78.32 84.7943 79.248 80.7303 79.248ZM80.7303 69.264C82.8423 69.264 84.7623 68.784 86.4903 67.824C88.2183 66.864 89.5943 65.584 90.6183 63.984C91.6743 62.352 92.2023 60.544 92.2023 58.56C92.2023 56.608 91.6743 54.832 90.6183 53.232C89.5943 51.6 88.2183 50.304 86.4903 49.344C84.7623 48.384 82.8423 47.904 80.7303 47.904C78.6503 47.904 76.7303 48.384 74.9703 49.344C73.2423 50.304 71.8503 51.6 70.7943 53.232C69.7703 54.832 69.2583 56.608 69.2583 58.56C69.2583 60.544 69.7703 62.352 70.7943 63.984C71.8503 65.584 73.2423 66.864 74.9703 67.824C76.7303 68.784 78.6503 69.264 80.7303 69.264ZM80.7303 37.92C82.5543 37.92 84.2023 37.504 85.6743 36.672C87.1783 35.84 88.3783 34.736 89.2743 33.36C90.1703 31.952 90.6183 30.4 90.6183 28.704C90.6183 27.008 90.1703 25.472 89.2743 24.096C88.3783 22.72 87.1783 21.616 85.6743 20.784C84.2023 19.952 82.5543 19.536 80.7303 19.536C78.9063 19.536 77.2423 19.952 75.7383 20.784C74.2663 21.616 73.0823 22.72 72.1863 24.096C71.2903 25.472 70.8423 27.008 70.8423 28.704C70.8423 30.4 71.2903 31.952 72.1863 33.36C73.0823 34.736 74.2663 35.84 75.7383 36.672C77.2423 37.504 78.9063 37.92 80.7303 37.92Z" fill="black"/>
</g>
<defs>
<clipPath id="clip0_435_392">
<rect width="106" height="88" fill="white"/>
</clipPath>
</defs>
</svg>
