<svg width="106" height="88" viewBox="0 0 106 88" fill="none" xmlns="http://www.w3.org/2000/svg">
<g clip-path="url(#clip0_435_392)">
<path d="M26.4078 79.248C22.1518 79.248 18.2958 78.224 14.8398 76.176C11.4158 74.096 8.69575 71.344 6.67975 67.92C4.69575 64.464 3.70375 60.688 3.70375 56.592H13.6878C13.6878 58.928 14.2638 61.056 15.4158 62.976C16.5678 64.896 18.1038 66.432 20.0238 67.584C21.9438 68.704 24.0718 69.264 26.4078 69.264C28.7118 69.264 30.8238 68.704 32.7438 67.584C34.6638 66.432 36.1998 64.896 37.3518 62.976C38.5038 61.056 39.0798 58.928 39.0798 56.592C39.0798 54.256 38.5518 52.128 37.4958 50.208C36.4398 48.256 34.8558 46.704 32.7438 45.552C30.6318 44.368 27.9438 43.776 24.6798 43.776H7.73575L14.5518 10.8H47.0478V20.784H22.6638L20.0238 33.792L25.8318 33.888C30.4078 33.984 34.4238 35.04 37.8798 37.056C41.3678 39.04 44.1038 41.728 46.0878 45.12C48.0718 48.48 49.0638 52.304 49.0638 56.592C49.0638 59.696 48.4718 62.624 47.2878 65.376C46.1038 68.096 44.4718 70.496 42.3918 72.576C40.3438 74.656 37.9438 76.288 35.1918 77.472C32.4718 78.656 29.5438 79.248 26.4078 79.248ZM69.7405 78L83.3245 54.48C80.0925 55.088 76.9405 54.96 73.8685 54.096C70.8285 53.2 68.0925 51.744 65.6605 49.728C63.2285 47.68 61.2925 45.2 59.8525 42.288C58.4125 39.376 57.6925 36.176 57.6925 32.688C57.6925 29.52 58.2845 26.544 59.4685 23.76C60.6845 20.944 62.3485 18.48 64.4605 16.368C66.5725 14.224 69.0205 12.56 71.8045 11.376C74.6205 10.16 77.6285 9.55199 80.8285 9.55199C85.0205 9.55199 88.8605 10.592 92.3485 12.672C95.8365 14.752 98.6205 17.552 100.701 21.072C102.781 24.56 103.821 28.432 103.821 32.688C103.821 34.896 103.549 36.912 103.005 38.736C102.493 40.56 101.677 42.48 100.557 44.496L81.3085 78H69.7405ZM80.7325 45.792C83.2925 45.792 85.5645 45.184 87.5485 43.968C89.5325 42.72 91.0845 41.104 92.2045 39.12C93.3565 37.104 93.9325 34.944 93.9325 32.64C93.9325 30.144 93.3245 27.904 92.1085 25.92C90.8925 23.936 89.2765 22.368 87.2605 21.216C85.2765 20.064 83.1325 19.488 80.8285 19.488C78.2685 19.488 75.9965 20.112 74.0125 21.36C72.0285 22.608 70.4605 24.24 69.3085 26.256C68.1565 28.24 67.5805 30.368 67.5805 32.64C67.5805 35.04 68.1565 37.248 69.3085 39.264C70.4925 41.248 72.0765 42.832 74.0605 44.016C76.0445 45.2 78.2685 45.792 80.7325 45.792Z" fill="black"/>
</g>
<defs>
<clipPath id="clip0_435_392">
<rect width="106" height="88" fill="white"/>
</clipPath>
</defs>
</svg>
