<svg width="106" height="88" viewBox="0 0 106 88" fill="none" xmlns="http://www.w3.org/2000/svg">
<g clip-path="url(#clip0_435_392)">
<path d="M24.4546 79.248C20.1986 79.248 16.3426 78.224 12.8866 76.176C9.46263 74.096 6.74263 71.344 4.72662 67.92C2.74262 64.464 1.75063 60.688 1.75063 56.592H11.7346C11.7346 58.928 12.3106 61.056 13.4626 62.976C14.6146 64.896 16.1506 66.432 18.0706 67.584C19.9906 68.704 22.1186 69.264 24.4546 69.264C26.7586 69.264 28.8706 68.704 30.7906 67.584C32.7106 66.432 34.2466 64.896 35.3986 62.976C36.5506 61.056 37.1266 58.928 37.1266 56.592C37.1266 54.256 36.5986 52.128 35.5426 50.208C34.4866 48.256 32.9026 46.704 30.7906 45.552C28.6786 44.368 25.9906 43.776 22.7266 43.776H5.78263L12.5986 10.8H45.0946V20.784H20.7106L18.0706 33.792L23.8786 33.888C28.4546 33.984 32.4706 35.04 35.9266 37.056C39.4146 39.04 42.1506 41.728 44.1346 45.12C46.1186 48.48 47.1106 52.304 47.1106 56.592C47.1106 59.696 46.5186 62.624 45.3346 65.376C44.1506 68.096 42.5186 70.496 40.4386 72.576C38.3906 74.656 35.9906 76.288 33.2386 77.472C30.5186 78.656 27.5906 79.248 24.4546 79.248ZM78.8971 79.248C74.9291 79.248 71.3451 78.352 68.1451 76.56C64.9771 74.736 62.2411 72.224 59.9371 69.024C57.6331 65.824 55.8731 62.128 54.6571 57.936C53.4411 53.712 52.8331 49.2 52.8331 44.4C52.8331 39.6 53.4411 35.088 54.6571 30.864C55.8731 26.64 57.6331 22.944 59.9371 19.776C62.2411 16.576 64.9771 14.08 68.1451 12.288C71.3451 10.464 74.9291 9.55199 78.8971 9.55199C82.8011 9.55199 86.3531 10.464 89.5531 12.288C92.7531 14.08 95.4731 16.576 97.7131 19.776C99.9851 22.944 101.729 26.64 102.945 30.864C104.161 35.088 104.769 39.6 104.769 44.4C104.769 49.2 104.161 53.712 102.945 57.936C101.729 62.128 99.9851 65.824 97.7131 69.024C95.4731 72.224 92.7531 74.736 89.5531 76.56C86.3531 78.352 82.8011 79.248 78.8971 79.248ZM78.8971 69.264C82.5771 69.264 85.6331 68.112 88.0651 65.808C90.5291 63.472 92.3691 60.416 93.5851 56.64C94.8011 52.864 95.4091 48.784 95.4091 44.4C95.4091 39.792 94.7691 35.616 93.4891 31.872C92.2411 28.096 90.3851 25.104 87.9211 22.896C85.4891 20.656 82.4811 19.536 78.8971 19.536C76.0491 19.536 73.5691 20.208 71.4571 21.552C69.3771 22.896 67.6491 24.736 66.2731 27.072C64.9291 29.408 63.9051 32.064 63.2011 35.04C62.5291 38.016 62.1931 41.136 62.1931 44.4C62.1931 48.784 62.8171 52.864 64.0651 56.64C65.3131 60.416 67.1691 63.472 69.6331 65.808C72.1291 68.112 75.2171 69.264 78.8971 69.264Z" fill="black"/>
</g>
<defs>
<clipPath id="clip0_435_392">
<rect width="106" height="88" fill="white"/>
</clipPath>
</defs>
</svg>
