<svg width="106" height="88" viewBox="0 0 106 88" fill="none" xmlns="http://www.w3.org/2000/svg">
<g clip-path="url(#clip0_435_392)">
<path d="M25.2984 79.248C21.0424 79.248 17.1864 78.224 13.7304 76.176C10.3064 74.096 7.58638 71.344 5.57037 67.92C3.58637 64.464 2.59438 60.688 2.59438 56.592H12.5784C12.5784 58.928 13.1544 61.056 14.3064 62.976C15.4584 64.896 16.9944 66.432 18.9144 67.584C20.8344 68.704 22.9624 69.264 25.2984 69.264C27.6024 69.264 29.7144 68.704 31.6344 67.584C33.5544 66.432 35.0904 64.896 36.2424 62.976C37.3944 61.056 37.9704 58.928 37.9704 56.592C37.9704 54.256 37.4424 52.128 36.3864 50.208C35.3304 48.256 33.7464 46.704 31.6344 45.552C29.5224 44.368 26.8344 43.776 23.5704 43.776H6.62638L13.4424 10.8H45.9384V20.784H21.5544L18.9144 33.792L24.7224 33.888C29.2984 33.984 33.3144 35.04 36.7704 37.056C40.2584 39.04 42.9944 41.728 44.9784 45.12C46.9624 48.48 47.9544 52.304 47.9544 56.592C47.9544 59.696 47.3624 62.624 46.1784 65.376C44.9944 68.096 43.3624 70.496 41.2824 72.576C39.2344 74.656 36.8344 76.288 34.0824 77.472C31.3624 78.656 28.4344 79.248 25.2984 79.248ZM78.3609 79.248C74.1049 79.248 70.2489 78.224 66.7929 76.176C63.3689 74.096 60.6489 71.344 58.6329 67.92C56.6489 64.464 55.6569 60.688 55.6569 56.592H65.6409C65.6409 58.928 66.2169 61.056 67.3689 62.976C68.5209 64.896 70.0569 66.432 71.9769 67.584C73.8969 68.704 76.0249 69.264 78.3609 69.264C80.6649 69.264 82.7769 68.704 84.6969 67.584C86.6169 66.432 88.1529 64.896 89.3049 62.976C90.4569 61.056 91.0329 58.928 91.0329 56.592C91.0329 54.256 90.5049 52.128 89.4489 50.208C88.3929 48.256 86.8089 46.704 84.6969 45.552C82.5849 44.368 79.8969 43.776 76.6329 43.776H59.6889L66.5049 10.8H99.0009V20.784H74.6169L71.9769 33.792L77.7849 33.888C82.3609 33.984 86.3769 35.04 89.8329 37.056C93.3209 39.04 96.0569 41.728 98.0409 45.12C100.025 48.48 101.017 52.304 101.017 56.592C101.017 59.696 100.425 62.624 99.2409 65.376C98.0569 68.096 96.4249 70.496 94.3449 72.576C92.2969 74.656 89.8969 76.288 87.1449 77.472C84.4249 78.656 81.4969 79.248 78.3609 79.248Z" fill="black"/>
</g>
<defs>
<clipPath id="clip0_435_392">
<rect width="106" height="88" fill="white"/>
</clipPath>
</defs>
</svg>
