<svg width="106" height="88" viewBox="0 0 106 88" fill="none" xmlns="http://www.w3.org/2000/svg">
<path d="M27.247 79.248C22.959 79.248 19.039 78.192 15.487 76.08C11.935 73.936 9.087 71.088 6.943 67.536C4.831 63.952 3.775 60 3.775 55.68C3.775 53.376 4.047 51.296 4.591 49.44C5.135 47.584 5.967 45.632 7.087 43.584L25.999 10.8H37.615L24.511 33.456C27.167 32.944 29.759 32.928 32.287 33.408C34.847 33.856 37.247 34.736 39.487 36.048C41.727 37.328 43.695 38.96 45.391 40.944C47.119 42.896 48.463 45.12 49.423 47.616C50.383 50.112 50.863 52.8 50.863 55.68C50.863 58.912 50.239 61.952 48.991 64.8C47.775 67.648 46.079 70.16 43.903 72.336C41.759 74.48 39.247 76.176 36.367 77.424C33.519 78.64 30.479 79.248 27.247 79.248ZM27.247 69.264C29.871 69.264 32.207 68.624 34.255 67.344C36.303 66.064 37.919 64.384 39.103 62.304C40.287 60.224 40.879 58.016 40.879 55.68C40.879 53.216 40.271 50.96 39.055 48.912C37.871 46.864 36.255 45.232 34.207 44.016C32.159 42.768 29.871 42.144 27.343 42.144C24.719 42.144 22.383 42.784 20.335 44.064C18.287 45.344 16.671 47.008 15.487 49.056C14.335 51.104 13.759 53.312 13.759 55.68C13.759 58.272 14.383 60.592 15.631 62.64C16.911 64.688 18.575 66.304 20.623 67.488C22.671 68.672 24.879 69.264 27.247 69.264ZM68.7093 78L82.2933 54.48C79.0613 55.088 75.9093 54.96 72.8373 54.096C69.7973 53.2 67.0613 51.744 64.6293 49.728C62.1973 47.68 60.2613 45.2 58.8213 42.288C57.3813 39.376 56.6613 36.176 56.6613 32.688C56.6613 29.52 57.2533 26.544 58.4373 23.76C59.6533 20.944 61.3173 18.48 63.4293 16.368C65.5413 14.224 67.9893 12.56 70.7733 11.376C73.5893 10.16 76.5973 9.55199 79.7973 9.55199C83.9893 9.55199 87.8293 10.592 91.3173 12.672C94.8053 14.752 97.5893 17.552 99.6693 21.072C101.749 24.56 102.789 28.432 102.789 32.688C102.789 34.896 102.517 36.912 101.973 38.736C101.461 40.56 100.645 42.48 99.5253 44.496L80.2773 78H68.7093ZM79.7013 45.792C82.2613 45.792 84.5333 45.184 86.5173 43.968C88.5013 42.72 90.0533 41.104 91.1733 39.12C92.3253 37.104 92.9013 34.944 92.9013 32.64C92.9013 30.144 92.2933 27.904 91.0773 25.92C89.8613 23.936 88.2453 22.368 86.2293 21.216C84.2453 20.064 82.1013 19.488 79.7973 19.488C77.2373 19.488 74.9653 20.112 72.9813 21.36C70.9973 22.608 69.4293 24.24 68.2773 26.256C67.1253 28.24 66.5493 30.368 66.5493 32.64C66.5493 35.04 67.1253 37.248 68.2773 39.264C69.4613 41.248 71.0453 42.832 73.0293 44.016C75.0133 45.2 77.2373 45.792 79.7013 45.792Z" fill="black"/>
</svg>
