<svg width="106" height="88" viewBox="0 0 106 88" fill="none" xmlns="http://www.w3.org/2000/svg">
<path d="M6.82363 78L39.7996 20.784H2.93563V10.8H51.3676V20.784L18.2956 78H6.82363ZM79.1521 79.248C75.0881 79.248 71.3921 78.32 68.0641 76.464C64.7361 74.608 62.0801 72.128 60.0961 69.024C58.1441 65.888 57.1681 62.4 57.1681 58.56C57.1681 55.328 57.9681 52.32 59.5681 49.536C61.1681 46.752 63.2961 44.448 65.9521 42.624C63.8081 41.024 62.0641 39.008 60.7201 36.576C59.3761 34.144 58.7041 31.52 58.7041 28.704C58.7041 25.184 59.6161 21.984 61.4401 19.104C63.2961 16.192 65.7761 13.872 68.8801 12.144C71.9841 10.416 75.4081 9.55199 79.1521 9.55199C82.8961 9.55199 86.3201 10.416 89.4241 12.144C92.5281 13.872 94.9921 16.192 96.8161 19.104C98.6721 21.984 99.6001 25.184 99.6001 28.704C99.6001 31.52 98.9281 34.144 97.5841 36.576C96.2721 39.008 94.5281 41.024 92.3521 42.624C95.0721 44.448 97.2161 46.752 98.7841 49.536C100.384 52.32 101.184 55.328 101.184 58.56C101.184 62.368 100.192 65.84 98.2081 68.976C96.2241 72.112 93.5681 74.608 90.2401 76.464C86.9121 78.32 83.2161 79.248 79.1521 79.248ZM79.1521 69.264C81.2641 69.264 83.1841 68.784 84.9121 67.824C86.6401 66.864 88.0161 65.584 89.0401 63.984C90.0961 62.352 90.6241 60.544 90.6241 58.56C90.6241 56.608 90.0961 54.832 89.0401 53.232C88.0161 51.6 86.6401 50.304 84.9121 49.344C83.1841 48.384 81.2641 47.904 79.1521 47.904C77.0721 47.904 75.1521 48.384 73.3921 49.344C71.6641 50.304 70.2721 51.6 69.2161 53.232C68.1921 54.832 67.6801 56.608 67.6801 58.56C67.6801 60.544 68.1921 62.352 69.2161 63.984C70.2721 65.584 71.6641 66.864 73.3921 67.824C75.1521 68.784 77.0721 69.264 79.1521 69.264ZM79.1521 37.92C80.9761 37.92 82.6241 37.504 84.0961 36.672C85.6001 35.84 86.8001 34.736 87.6961 33.36C88.5921 31.952 89.0401 30.4 89.0401 28.704C89.0401 27.008 88.5921 25.472 87.6961 24.096C86.8001 22.72 85.6001 21.616 84.0961 20.784C82.6241 19.952 80.9761 19.536 79.1521 19.536C77.3281 19.536 75.6641 19.952 74.1601 20.784C72.6881 21.616 71.5041 22.72 70.6081 24.096C69.7121 25.472 69.2641 27.008 69.2641 28.704C69.2641 30.4 69.7121 31.952 70.6081 33.36C71.5041 34.736 72.6881 35.84 74.1601 36.672C75.6641 37.504 77.3281 37.92 79.1521 37.92Z" fill="black"/>
</svg>
