<svg width="106" height="88" viewBox="0 0 106 88" fill="none" xmlns="http://www.w3.org/2000/svg">
<path d="M27.1678 79.248C23.1038 79.248 19.4078 78.32 16.0798 76.464C12.7518 74.608 10.0958 72.128 8.11175 69.024C6.15975 65.888 5.18375 62.4 5.18375 58.56C5.18375 55.328 5.98375 52.32 7.58375 49.536C9.18375 46.752 11.3118 44.448 13.9678 42.624C11.8238 41.024 10.0798 39.008 8.73575 36.576C7.39175 34.144 6.71975 31.52 6.71975 28.704C6.71975 25.184 7.63175 21.984 9.45575 19.104C11.3118 16.192 13.7918 13.872 16.8958 12.144C19.9998 10.416 23.4238 9.55199 27.1678 9.55199C30.9118 9.55199 34.3358 10.416 37.4398 12.144C40.5438 13.872 43.0078 16.192 44.8318 19.104C46.6878 21.984 47.6158 25.184 47.6158 28.704C47.6158 31.52 46.9438 34.144 45.5998 36.576C44.2878 39.008 42.5438 41.024 40.3678 42.624C43.0878 44.448 45.2318 46.752 46.7998 49.536C48.3998 52.32 49.1998 55.328 49.1998 58.56C49.1998 62.368 48.2078 65.84 46.2238 68.976C44.2398 72.112 41.5838 74.608 38.2558 76.464C34.9278 78.32 31.2318 79.248 27.1678 79.248ZM27.1678 69.264C29.2798 69.264 31.1998 68.784 32.9278 67.824C34.6558 66.864 36.0318 65.584 37.0558 63.984C38.1118 62.352 38.6398 60.544 38.6398 58.56C38.6398 56.608 38.1118 54.832 37.0558 53.232C36.0318 51.6 34.6558 50.304 32.9278 49.344C31.1998 48.384 29.2798 47.904 27.1678 47.904C25.0878 47.904 23.1678 48.384 21.4078 49.344C19.6798 50.304 18.2878 51.6 17.2318 53.232C16.2078 54.832 15.6958 56.608 15.6958 58.56C15.6958 60.544 16.2078 62.352 17.2318 63.984C18.2878 65.584 19.6798 66.864 21.4078 67.824C23.1678 68.784 25.0878 69.264 27.1678 69.264ZM27.1678 37.92C28.9918 37.92 30.6398 37.504 32.1118 36.672C33.6158 35.84 34.8158 34.736 35.7118 33.36C36.6078 31.952 37.0558 30.4 37.0558 28.704C37.0558 27.008 36.6078 25.472 35.7118 24.096C34.8158 22.72 33.6158 21.616 32.1118 20.784C30.6398 19.952 28.9918 19.536 27.1678 19.536C25.3438 19.536 23.6798 19.952 22.1758 20.784C20.7038 21.616 19.5198 22.72 18.6238 24.096C17.7278 25.472 17.2798 27.008 17.2798 28.704C17.2798 30.4 17.7278 31.952 18.6238 33.36C19.5198 34.736 20.7038 35.84 22.1758 36.672C23.6798 37.504 25.3438 37.92 27.1678 37.92ZM78.824 79.248C74.76 79.248 71.064 78.32 67.736 76.464C64.408 74.608 61.752 72.128 59.768 69.024C57.816 65.888 56.84 62.4 56.84 58.56C56.84 55.328 57.64 52.32 59.24 49.536C60.84 46.752 62.968 44.448 65.624 42.624C63.48 41.024 61.736 39.008 60.392 36.576C59.048 34.144 58.376 31.52 58.376 28.704C58.376 25.184 59.288 21.984 61.112 19.104C62.968 16.192 65.448 13.872 68.552 12.144C71.656 10.416 75.08 9.55199 78.824 9.55199C82.568 9.55199 85.992 10.416 89.096 12.144C92.2 13.872 94.664 16.192 96.488 19.104C98.344 21.984 99.272 25.184 99.272 28.704C99.272 31.52 98.6 34.144 97.256 36.576C95.944 39.008 94.2 41.024 92.024 42.624C94.744 44.448 96.888 46.752 98.456 49.536C100.056 52.32 100.856 55.328 100.856 58.56C100.856 62.368 99.864 65.84 97.88 68.976C95.896 72.112 93.24 74.608 89.912 76.464C86.584 78.32 82.888 79.248 78.824 79.248ZM78.824 69.264C80.936 69.264 82.856 68.784 84.584 67.824C86.312 66.864 87.688 65.584 88.712 63.984C89.768 62.352 90.296 60.544 90.296 58.56C90.296 56.608 89.768 54.832 88.712 53.232C87.688 51.6 86.312 50.304 84.584 49.344C82.856 48.384 80.936 47.904 78.824 47.904C76.744 47.904 74.824 48.384 73.064 49.344C71.336 50.304 69.944 51.6 68.888 53.232C67.864 54.832 67.352 56.608 67.352 58.56C67.352 60.544 67.864 62.352 68.888 63.984C69.944 65.584 71.336 66.864 73.064 67.824C74.824 68.784 76.744 69.264 78.824 69.264ZM78.824 37.92C80.648 37.92 82.296 37.504 83.768 36.672C85.272 35.84 86.472 34.736 87.368 33.36C88.264 31.952 88.712 30.4 88.712 28.704C88.712 27.008 88.264 25.472 87.368 24.096C86.472 22.72 85.272 21.616 83.768 20.784C82.296 19.952 80.648 19.536 78.824 19.536C77 19.536 75.336 19.952 73.832 20.784C72.36 21.616 71.176 22.72 70.28 24.096C69.384 25.472 68.936 27.008 68.936 28.704C68.936 30.4 69.384 31.952 70.28 33.36C71.176 34.736 72.36 35.84 73.832 36.672C75.336 37.504 77 37.92 78.824 37.92Z" fill="black"/>
</svg>
