<svg width="106" height="88" viewBox="0 0 106 88" fill="none" xmlns="http://www.w3.org/2000/svg">
<path d="M16.0843 78L29.6683 54.48C26.4363 55.088 23.2843 54.96 20.2123 54.096C17.1723 53.2 14.4363 51.744 12.0043 49.728C9.57225 47.68 7.63625 45.2 6.19625 42.288C4.75625 39.376 4.03625 36.176 4.03625 32.688C4.03625 29.52 4.62825 26.544 5.81225 23.76C7.02825 20.944 8.69225 18.48 10.8043 16.368C12.9163 14.224 15.3643 12.56 18.1483 11.376C20.9643 10.16 23.9723 9.55199 27.1723 9.55199C31.3643 9.55199 35.2043 10.592 38.6923 12.672C42.1803 14.752 44.9643 17.552 47.0443 21.072C49.1243 24.56 50.1643 28.432 50.1643 32.688C50.1643 34.896 49.8923 36.912 49.3483 38.736C48.8363 40.56 48.0203 42.48 46.9003 44.496L27.6523 78H16.0843ZM27.0763 45.792C29.6363 45.792 31.9083 45.184 33.8923 43.968C35.8763 42.72 37.4283 41.104 38.5483 39.12C39.7003 37.104 40.2763 34.944 40.2763 32.64C40.2763 30.144 39.6683 27.904 38.4523 25.92C37.2363 23.936 35.6203 22.368 33.6043 21.216C31.6203 20.064 29.4763 19.488 27.1723 19.488C24.6123 19.488 22.3403 20.112 20.3563 21.36C18.3723 22.608 16.8043 24.24 15.6523 26.256C14.5003 28.24 13.9243 30.368 13.9243 32.64C13.9243 35.04 14.5003 37.248 15.6523 39.264C16.8363 41.248 18.4203 42.832 20.4043 44.016C22.3883 45.2 24.6123 45.792 27.0763 45.792ZM67.928 78L81.512 54.48C78.28 55.088 75.128 54.96 72.056 54.096C69.016 53.2 66.28 51.744 63.848 49.728C61.416 47.68 59.48 45.2 58.04 42.288C56.6 39.376 55.88 36.176 55.88 32.688C55.88 29.52 56.472 26.544 57.656 23.76C58.872 20.944 60.536 18.48 62.648 16.368C64.76 14.224 67.208 12.56 69.992 11.376C72.808 10.16 75.816 9.55199 79.016 9.55199C83.208 9.55199 87.048 10.592 90.536 12.672C94.024 14.752 96.808 17.552 98.888 21.072C100.968 24.56 102.008 28.432 102.008 32.688C102.008 34.896 101.736 36.912 101.192 38.736C100.68 40.56 99.864 42.48 98.744 44.496L79.496 78H67.928ZM78.92 45.792C81.48 45.792 83.752 45.184 85.736 43.968C87.72 42.72 89.272 41.104 90.392 39.12C91.544 37.104 92.12 34.944 92.12 32.64C92.12 30.144 91.512 27.904 90.296 25.92C89.08 23.936 87.464 22.368 85.448 21.216C83.464 20.064 81.32 19.488 79.016 19.488C76.456 19.488 74.184 20.112 72.2 21.36C70.216 22.608 68.648 24.24 67.496 26.256C66.344 28.24 65.768 30.368 65.768 32.64C65.768 35.04 66.344 37.248 67.496 39.264C68.68 41.248 70.264 42.832 72.248 44.016C74.232 45.2 76.456 45.792 78.92 45.792Z" fill="black"/>
</svg>
