<svg width="106" height="88" viewBox="0 0 106 88" fill="none" xmlns="http://www.w3.org/2000/svg">
<path d="M16.3499 78L29.9339 54.48C26.7019 55.088 23.5499 54.96 20.4779 54.096C17.4379 53.2 14.7019 51.744 12.2699 49.728C9.83788 47.68 7.90188 45.2 6.46188 42.288C5.02188 39.376 4.30188 36.176 4.30188 32.688C4.30188 29.52 4.89388 26.544 6.07788 23.76C7.29388 20.944 8.95788 18.48 11.0699 16.368C13.1819 14.224 15.6299 12.56 18.4139 11.376C21.2299 10.16 24.2379 9.55199 27.4379 9.55199C31.6299 9.55199 35.4699 10.592 38.9579 12.672C42.4459 14.752 45.2299 17.552 47.3099 21.072C49.3899 24.56 50.4299 28.432 50.4299 32.688C50.4299 34.896 50.1579 36.912 49.6139 38.736C49.1019 40.56 48.2859 42.48 47.1659 44.496L27.9179 78H16.3499ZM27.3419 45.792C29.9019 45.792 32.1739 45.184 34.1579 43.968C36.1419 42.72 37.6939 41.104 38.8139 39.12C39.9659 37.104 40.5419 34.944 40.5419 32.64C40.5419 30.144 39.9339 27.904 38.7179 25.92C37.5019 23.936 35.8859 22.368 33.8699 21.216C31.8859 20.064 29.7419 19.488 27.4379 19.488C24.8779 19.488 22.6059 20.112 20.6219 21.36C18.6379 22.608 17.0699 24.24 15.9179 26.256C14.7659 28.24 14.1899 30.368 14.1899 32.64C14.1899 35.04 14.7659 37.248 15.9179 39.264C17.1019 41.248 18.6859 42.832 20.6699 44.016C22.6539 45.2 24.8779 45.792 27.3419 45.792ZM59.0736 78L92.0496 20.784H55.1856V10.8H103.618V20.784L70.5456 78H59.0736Z" fill="black"/>
</svg>
