<svg width="106" height="88" viewBox="0 0 106 88" fill="none" xmlns="http://www.w3.org/2000/svg">
<g clip-path="url(#clip0_435_392)">
<path d="M13.178 78L26.762 54.48C23.53 55.088 20.378 54.96 17.306 54.096C14.266 53.2 11.53 51.744 9.098 49.728C6.666 47.68 4.73 45.2 3.29 42.288C1.85 39.376 1.13 36.176 1.13 32.688C1.13 29.52 1.722 26.544 2.906 23.76C4.122 20.944 5.786 18.48 7.898 16.368C10.01 14.224 12.458 12.56 15.242 11.376C18.058 10.16 21.066 9.55199 24.266 9.55199C28.458 9.55199 32.298 10.592 35.786 12.672C39.274 14.752 42.058 17.552 44.138 21.072C46.218 24.56 47.258 28.432 47.258 32.688C47.258 34.896 46.986 36.912 46.442 38.736C45.93 40.56 45.114 42.48 43.994 44.496L24.746 78H13.178ZM24.17 45.792C26.73 45.792 29.002 45.184 30.986 43.968C32.97 42.72 34.522 41.104 35.642 39.12C36.794 37.104 37.37 34.944 37.37 32.64C37.37 30.144 36.762 27.904 35.546 25.92C34.33 23.936 32.714 22.368 30.698 21.216C28.714 20.064 26.57 19.488 24.266 19.488C21.706 19.488 19.434 20.112 17.45 21.36C15.466 22.608 13.898 24.24 12.746 26.256C11.594 28.24 11.018 30.368 11.018 32.64C11.018 35.04 11.594 37.248 12.746 39.264C13.93 41.248 15.514 42.832 17.498 44.016C19.482 45.2 21.706 45.792 24.17 45.792ZM79.0378 79.248C75.0698 79.248 71.4858 78.352 68.2858 76.56C65.1178 74.736 62.3818 72.224 60.0778 69.024C57.7738 65.824 56.0138 62.128 54.7978 57.936C53.5818 53.712 52.9738 49.2 52.9738 44.4C52.9738 39.6 53.5818 35.088 54.7978 30.864C56.0138 26.64 57.7738 22.944 60.0778 19.776C62.3818 16.576 65.1178 14.08 68.2858 12.288C71.4858 10.464 75.0698 9.55199 79.0378 9.55199C82.9418 9.55199 86.4938 10.464 89.6938 12.288C92.8938 14.08 95.6138 16.576 97.8538 19.776C100.126 22.944 101.87 26.64 103.086 30.864C104.302 35.088 104.91 39.6 104.91 44.4C104.91 49.2 104.302 53.712 103.086 57.936C101.87 62.128 100.126 65.824 97.8538 69.024C95.6138 72.224 92.8938 74.736 89.6938 76.56C86.4938 78.352 82.9418 79.248 79.0378 79.248ZM79.0378 69.264C82.7178 69.264 85.7738 68.112 88.2058 65.808C90.6698 63.472 92.5098 60.416 93.7258 56.64C94.9418 52.864 95.5498 48.784 95.5498 44.4C95.5498 39.792 94.9098 35.616 93.6298 31.872C92.3818 28.096 90.5258 25.104 88.0618 22.896C85.6298 20.656 82.6218 19.536 79.0378 19.536C76.1898 19.536 73.7098 20.208 71.5978 21.552C69.5178 22.896 67.7898 24.736 66.4138 27.072C65.0698 29.408 64.0458 32.064 63.3418 35.04C62.6698 38.016 62.3338 41.136 62.3338 44.4C62.3338 48.784 62.9578 52.864 64.2057 56.64C65.4538 60.416 67.3098 63.472 69.7738 65.808C72.2698 68.112 75.3578 69.264 79.0378 69.264Z" fill="black"/>
</g>
<defs>
<clipPath id="clip0_435_392">
<rect width="106" height="88" fill="white"/>
</clipPath>
</defs>
</svg>
