<svg width="250" height="250" viewBox="0 0 250 250" fill="none" xmlns="http://www.w3.org/2000/svg">
<g clip-path="url(#clip0_436_396)">
<path d="M18.4499 138V116.544H15.4439L16.4699 112.8H22.1939V138H18.4499ZM26.1581 138L35.3921 125.328L26.2661 112.8H30.8921L37.6961 122.16L44.5181 112.8H49.1441L40.0361 125.328L49.2521 138H44.6081L37.6961 128.532L30.8201 138H26.1581ZM61.4623 138.468C60.0823 138.468 58.7563 138.252 57.4843 137.82C56.2123 137.388 55.1023 136.77 54.1543 135.966C53.2063 135.15 52.5283 134.184 52.1203 133.068L55.6303 131.754C55.8343 132.33 56.2243 132.846 56.8003 133.302C57.3883 133.746 58.0843 134.094 58.8883 134.346C59.7043 134.598 60.5623 134.724 61.4623 134.724C62.4223 134.724 63.3223 134.568 64.1623 134.256C65.0143 133.944 65.6983 133.512 66.2143 132.96C66.7423 132.408 67.0063 131.76 67.0063 131.016C67.0063 130.248 66.7303 129.618 66.1783 129.126C65.6383 128.634 64.9423 128.244 64.0903 127.956C63.2503 127.668 62.3743 127.452 61.4623 127.308C59.6983 127.02 58.1143 126.6 56.7103 126.048C55.3183 125.496 54.2143 124.722 53.3983 123.726C52.5943 122.73 52.1923 121.434 52.1923 119.838C52.1923 118.338 52.6183 117.03 53.4703 115.914C54.3343 114.798 55.4683 113.934 56.8723 113.322C58.2883 112.698 59.8183 112.386 61.4623 112.386C62.8183 112.386 64.1263 112.602 65.3863 113.034C66.6583 113.454 67.7743 114.072 68.7343 114.888C69.7063 115.692 70.4023 116.67 70.8223 117.822L67.2763 119.1C67.0723 118.512 66.6823 118.002 66.1063 117.57C65.5303 117.126 64.8343 116.778 64.0183 116.526C63.2143 116.274 62.3623 116.148 61.4623 116.148C60.5023 116.136 59.6023 116.292 58.7623 116.616C57.9343 116.928 57.2563 117.36 56.7283 117.912C56.2003 118.464 55.9363 119.106 55.9363 119.838C55.9363 120.738 56.1823 121.422 56.6743 121.89C57.1663 122.358 57.8263 122.706 58.6543 122.934C59.4943 123.15 60.4303 123.348 61.4623 123.528C63.1183 123.792 64.6483 124.23 66.0523 124.842C67.4683 125.454 68.6023 126.27 69.4543 127.29C70.3183 128.298 70.7503 129.54 70.7503 131.016C70.7503 132.504 70.3183 133.812 69.4543 134.94C68.6023 136.056 67.4683 136.926 66.0523 137.55C64.6483 138.162 63.1183 138.468 61.4623 138.468ZM92.9876 112.8V116.544H84.9596V138H81.2156V116.544H73.2056V112.8H92.9876ZM101.704 112.8H106.078L115.24 138H111.28L109.534 133.212H98.2476L96.5196 138H92.5416L101.704 112.8ZM99.6336 129.468H108.148L103.882 117.768L99.6336 129.468ZM123.9 138L114.756 112.8H118.716L126.24 133.554L133.8 112.8H137.76L128.616 138H123.9ZM158.644 138H153.784L146.278 127.614L144.748 129.468V138H141.004V112.8H144.748V123.654L153.82 112.8H158.716L148.744 124.698L158.644 138ZM169.59 112.8H173.964L183.126 138H179.166L177.42 133.212H166.134L164.406 138H160.428L169.59 112.8ZM167.52 129.468H176.034L171.768 117.768L167.52 129.468ZM187.444 138.468C187.048 138.468 186.712 138.324 186.436 138.036C186.16 137.76 186.022 137.418 186.022 137.01C186.022 136.626 186.16 136.296 186.436 136.02C186.712 135.732 187.048 135.588 187.444 135.588C187.852 135.588 188.194 135.732 188.47 136.02C188.758 136.296 188.902 136.626 188.902 137.01C188.902 137.418 188.758 137.76 188.47 138.036C188.194 138.324 187.852 138.468 187.444 138.468ZM193.211 138V112.8H201.761C203.105 112.8 204.317 113.13 205.397 113.79C206.477 114.438 207.335 115.32 207.971 116.436C208.607 117.54 208.925 118.782 208.925 120.162C208.925 121.398 208.673 122.52 208.169 123.528C207.665 124.536 206.975 125.37 206.099 126.03C205.235 126.69 204.257 127.128 203.165 127.344L209.321 138H206.405L200.339 127.542H195.731V138H193.211ZM195.731 125.022H201.545C202.433 125.022 203.243 124.806 203.975 124.374C204.719 123.93 205.307 123.336 205.739 122.592C206.183 121.836 206.405 120.984 206.405 120.036C206.405 119.088 206.183 118.242 205.739 117.498C205.307 116.742 204.719 116.148 203.975 115.716C203.243 115.272 202.433 115.05 201.545 115.05H195.731V125.022ZM223.059 138.468C221.043 138.468 219.303 137.976 217.839 136.992C216.375 136.008 215.247 134.688 214.455 133.032C213.675 131.364 213.285 129.516 213.285 127.488V112.8H215.805V127.488C215.805 129.024 216.087 130.434 216.651 131.718C217.215 133.002 218.037 134.028 219.117 134.796C220.197 135.564 221.511 135.948 223.059 135.948C224.643 135.948 225.969 135.564 227.037 134.796C228.117 134.016 228.933 132.984 229.485 131.7C230.037 130.416 230.313 129.012 230.313 127.488V112.8H232.833V127.488C232.833 129.012 232.605 130.44 232.149 131.772C231.705 133.092 231.057 134.256 230.205 135.264C229.365 136.272 228.339 137.058 227.127 137.622C225.927 138.186 224.571 138.468 223.059 138.468Z" fill="black"/>
</g>
<defs>
<clipPath id="clip0_436_396">
<rect width="250" height="250" fill="white"/>
</clipPath>
</defs>
</svg>
